<?xml version="1.0" encoding="UTF-8"?>
<svg xmlns="http://www.w3.org/2000/svg" xmlns:xlink="http://www.w3.org/1999/xlink" width="25px" height="25px" viewBox="0 0 25 25" version="1.1">
<g id="surface1">
<path style=" stroke:none;fill-rule:nonzero;fill:rgb(0%,0%,0%);fill-opacity:1;" d="M 12.5 0.191406 C 5.597656 0.191406 0 5.789062 0 12.691406 C 0 18.550781 4.035156 23.449219 9.472656 24.808594 C 9.414062 24.636719 9.375 24.441406 9.375 24.199219 L 9.375 22.0625 C 8.867188 22.0625 8.019531 22.0625 7.804688 22.0625 C 6.949219 22.0625 6.1875 21.695312 5.820312 21.011719 C 5.410156 20.253906 5.339844 19.089844 4.324219 18.382812 C 4.023438 18.144531 4.253906 17.875 4.601562 17.910156 C 5.242188 18.09375 5.773438 18.53125 6.273438 19.183594 C 6.769531 19.835938 7.003906 19.984375 7.933594 19.984375 C 8.386719 19.984375 9.058594 19.960938 9.695312 19.859375 C 10.039062 18.992188 10.628906 18.191406 11.351562 17.816406 C 7.1875 17.386719 5.199219 15.316406 5.199219 12.503906 C 5.199219 11.292969 5.714844 10.125 6.59375 9.136719 C 6.304688 8.160156 5.945312 6.160156 6.703125 5.402344 C 8.574219 5.402344 9.707031 6.617188 9.980469 6.945312 C 10.914062 6.625 11.9375 6.441406 13.015625 6.441406 C 14.09375 6.441406 15.125 6.625 16.058594 6.945312 C 16.328125 6.621094 17.460938 5.402344 19.339844 5.402344 C 20.101562 6.164062 19.734375 8.167969 19.445312 9.144531 C 20.316406 10.128906 20.828125 11.296875 20.828125 12.503906 C 20.828125 15.316406 18.84375 17.382812 14.6875 17.816406 C 15.832031 18.410156 16.667969 20.089844 16.667969 21.351562 L 16.667969 24.199219 C 16.667969 24.308594 16.644531 24.386719 16.628906 24.480469 C 21.5 22.773438 25 18.148438 25 12.691406 C 25 5.789062 19.402344 0.191406 12.5 0.191406 Z M 12.5 0.191406 "/>
</g>
</svg>
