<?xml version="1.0" encoding="UTF-8"?>
<svg xmlns="http://www.w3.org/2000/svg" xmlns:xlink="http://www.w3.org/1999/xlink" width="25px" height="19px" viewBox="0 0 25 19" version="1.1">
<g id="surface1">
<path style=" stroke:none;fill-rule:nonzero;fill:rgb(29.803922%,68.627451%,31.372549%);fill-opacity:1;" d="M 24.34375 5.007812 L 21.523438 6.589844 L 18.703125 9.328125 L 18.703125 18.71875 L 22.652344 18.71875 C 23.585938 18.71875 24.34375 17.941406 24.34375 16.988281 Z M 24.34375 5.007812 "/>
<path style=" stroke:none;fill-rule:nonzero;fill:rgb(11.764706%,53.333333%,89.803922%);fill-opacity:1;" d="M 0.65625 5.007812 L 2.691406 5.992188 L 6.296875 9.328125 L 6.296875 18.71875 L 2.347656 18.71875 C 1.414062 18.71875 0.65625 17.941406 0.65625 16.988281 Z M 0.65625 5.007812 "/>
<path style=" stroke:none;fill-rule:nonzero;fill:rgb(89.803922%,22.352941%,20.784314%);fill-opacity:1;" d="M 18.703125 2.128906 L 12.5 6.878906 L 6.296875 2.128906 L 5.734375 5.464844 L 6.296875 9.328125 L 12.5 14.078125 L 18.703125 9.328125 L 19.265625 5.464844 Z M 18.703125 2.128906 "/>
<path style=" stroke:none;fill-rule:nonzero;fill:rgb(77.647059%,15.686275%,15.686275%);fill-opacity:1;" d="M 0.65625 2.761719 L 0.65625 5.007812 L 6.296875 9.328125 L 6.296875 2.128906 L 4.53125 0.777344 C 4.117188 0.457031 3.609375 0.28125 3.078125 0.28125 C 1.742188 0.28125 0.65625 1.394531 0.65625 2.761719 Z M 0.65625 2.761719 "/>
<path style=" stroke:none;fill-rule:nonzero;fill:rgb(98.431373%,75.294118%,17.647059%);fill-opacity:1;" d="M 24.34375 2.761719 L 24.34375 5.007812 L 18.703125 9.328125 L 18.703125 2.128906 L 20.46875 0.777344 C 20.882812 0.457031 21.390625 0.28125 21.921875 0.28125 C 23.257812 0.28125 24.34375 1.394531 24.34375 2.761719 Z M 24.34375 2.761719 "/>
</g>
</svg>
