<?xml version="1.0" encoding="UTF-8"?>
<svg xmlns="http://www.w3.org/2000/svg" xmlns:xlink="http://www.w3.org/1999/xlink" width="25px" height="25px" viewBox="0 0 25 25" version="1.1">
<g id="surface1">
<path style=" stroke:none;fill-rule:nonzero;fill:rgb(100%,100%,100%);fill-opacity:1;" d="M 3.75 0 L 21.25 0 C 23.320312 0 25 1.679688 25 3.75 L 25 21.25 C 25 23.320312 23.320312 25 21.25 25 L 3.75 25 C 1.679688 25 0 23.320312 0 21.25 L 0 3.75 C 0 1.679688 1.679688 0 3.75 0 Z M 3.75 0 "/>
<path style=" stroke:none;fill-rule:nonzero;fill:rgb(12.54902%,74.509804%,100%);fill-opacity:1;" d="M 17.722656 19.601562 C 17.707031 19.683594 17.644531 19.714844 17.511719 19.714844 L 15.363281 19.714844 C 15.226562 19.714844 15.121094 19.660156 15.011719 19.550781 L 11.480469 15.046875 L 10.496094 15.980469 L 10.496094 19.472656 C 10.496094 19.632812 10.417969 19.714844 10.257812 19.714844 L 8.605469 19.714844 C 8.445312 19.714844 8.363281 19.632812 8.363281 19.472656 L 8.363281 3.761719 C 8.363281 3.601562 8.445312 3.519531 8.605469 3.519531 L 10.242188 3.519531 C 10.402344 3.519531 10.484375 3.601562 10.484375 3.761719 L 10.484375 13.425781 L 14.699219 9.167969 C 14.8125 9.050781 14.921875 8.996094 15.03125 8.996094 L 17.238281 8.996094 C 17.332031 8.996094 17.394531 9.039062 17.429688 9.117188 C 17.460938 9.226562 17.453125 9.277344 17.402344 9.332031 L 12.890625 13.699219 C 17.722656 19.335938 17.722656 19.605469 17.722656 19.605469 "/>
</g>
</svg>
