<?xml version="1.0" encoding="UTF-8"?>
<svg xmlns="http://www.w3.org/2000/svg" xmlns:xlink="http://www.w3.org/1999/xlink" width="25px" height="25px" viewBox="0 0 25 25" version="1.1">
<g id="surface1">
<path style=" stroke:none;fill-rule:nonzero;fill:rgb(0.784314%,53.333333%,81.960784%);fill-opacity:1;" d="M 25 21.53125 C 25 23.441406 23.441406 25 21.53125 25 L 3.46875 25 C 1.558594 25 0 23.441406 0 21.53125 L 0 3.46875 C 0 1.558594 1.558594 0 3.46875 0 L 21.53125 0 C 23.441406 0 25 1.558594 25 3.46875 Z M 25 21.53125 "/>
<path style=" stroke:none;fill-rule:nonzero;fill:rgb(100%,100%,100%);fill-opacity:1;" d="M 4.167969 9.03125 L 7.632812 9.03125 L 7.632812 20.832031 L 4.167969 20.832031 Z M 5.890625 7.632812 L 5.871094 7.632812 C 4.839844 7.632812 4.167969 6.871094 4.167969 5.90625 C 4.167969 4.917969 4.855469 4.167969 5.910156 4.167969 C 6.964844 4.167969 7.617188 4.917969 7.632812 5.90625 C 7.632812 6.871094 6.964844 7.632812 5.890625 7.632812 Z M 20.832031 20.832031 L 17.367188 20.832031 L 17.367188 14.507812 C 17.367188 12.992188 16.511719 11.949219 15.144531 11.949219 C 14.101562 11.949219 13.539062 12.652344 13.257812 13.328125 C 13.164062 13.570312 13.199219 14.246094 13.199219 14.582031 L 13.199219 20.832031 L 9.71875 20.832031 L 9.71875 9.03125 L 13.199219 9.03125 L 13.199219 10.847656 C 13.699219 10.074219 14.480469 9.03125 16.484375 9.03125 C 18.972656 9.03125 20.832031 10.59375 20.832031 14.085938 Z M 20.832031 20.832031 "/>
</g>
</svg>
