<?xml version="1.0" encoding="UTF-8"?>
<svg xmlns="http://www.w3.org/2000/svg" xmlns:xlink="http://www.w3.org/1999/xlink" width="19px" height="30px" viewBox="0 0 19 30" version="1.1">
<g id="surface1">
<path style=" stroke:none;fill-rule:nonzero;fill:rgb(86.666667%,78.431373%,18.431373%);fill-opacity:1;" d="M 10.742188 23.238281 C 15.398438 23.457031 18.996094 24.878906 18.996094 26.605469 C 18.996094 28.480469 14.746094 30 9.5 30 C 4.257812 30 0.00390625 28.480469 0.00390625 26.605469 C 0.00390625 24.878906 3.601562 23.457031 8.257812 23.238281 "/>
<path style=" stroke:none;fill-rule:nonzero;fill:rgb(65.882353%,58.431373%,14.901961%);fill-opacity:1;" d="M 9.5 26.554688 L 16.914062 24.484375 C 15.882812 24.023438 14.523438 23.664062 12.960938 23.445312 Z M 9.5 26.554688 "/>
<path style=" stroke:none;fill-rule:nonzero;fill:rgb(100%,19.215686%,25.098039%);fill-opacity:1;" d="M 9.5 0 C 4.671875 0 0.753906 3.835938 0.753906 8.570312 C 0.753906 15.257812 7.988281 19.890625 9.5 26.554688 C 10.625 17.703125 10.625 8.851562 9.5 0 Z M 9.5 0 "/>
<path style=" stroke:none;fill-rule:nonzero;fill:rgb(100%,100%,100%);fill-opacity:1;" d="M 9.5 4.988281 C 7.457031 4.988281 5.796875 6.613281 5.796875 8.617188 C 5.796875 10.621094 7.457031 12.246094 9.5 12.246094 C 10.484375 9.824219 10.484375 7.40625 9.5 4.988281 Z M 9.5 4.988281 "/>
<path style=" stroke:none;fill-rule:nonzero;fill:rgb(78.039216%,13.333333%,18.039216%);fill-opacity:1;" d="M 9.5 0 C 14.332031 0 18.246094 3.835938 18.246094 8.570312 C 18.246094 15.257812 11.011719 19.890625 9.5 26.554688 Z M 9.5 0 "/>
<path style=" stroke:none;fill-rule:nonzero;fill:rgb(94.117647%,94.117647%,94.117647%);fill-opacity:1;" d="M 9.5 4.988281 C 11.546875 4.988281 13.203125 6.613281 13.203125 8.617188 C 13.203125 10.621094 11.546875 12.246094 9.5 12.246094 Z M 9.5 4.988281 "/>
</g>
</svg>
