<?xml version="1.0" encoding="UTF-8"?>
<svg xmlns="http://www.w3.org/2000/svg" xmlns:xlink="http://www.w3.org/1999/xlink" width="25px" height="25px" viewBox="0 0 25 25" version="1.1">
<g id="surface1">
<path style=" stroke:none;fill-rule:nonzero;fill:rgb(0%,0%,0%);fill-opacity:1;" d="M 7.050781 5.371094 C 10.945312 5.371094 14.101562 8.550781 14.101562 12.46875 C 14.101562 16.390625 10.945312 19.570312 7.050781 19.570312 C 3.15625 19.570312 0 16.390625 0 12.46875 C 0 8.550781 3.15625 5.371094 7.050781 5.371094 Z M 18.3125 5.785156 C 20.257812 5.785156 21.835938 8.777344 21.835938 12.46875 C 21.835938 16.160156 20.257812 19.152344 18.3125 19.152344 C 16.363281 19.152344 14.785156 16.160156 14.785156 12.46875 C 14.785156 8.78125 16.363281 5.785156 18.3125 5.785156 Z M 23.761719 6.484375 C 24.445312 6.484375 25 9.164062 25 12.46875 C 25 15.777344 24.445312 18.457031 23.761719 18.457031 C 23.074219 18.457031 22.519531 15.777344 22.519531 12.46875 C 22.519531 9.164062 23.074219 6.484375 23.761719 6.484375 Z M 23.761719 6.484375 "/>
</g>
</svg>
