<?xml version="1.0" encoding="UTF-8"?>
<svg xmlns="http://www.w3.org/2000/svg" xmlns:xlink="http://www.w3.org/1999/xlink" width="25px" height="25px" viewBox="0 0 25 25" version="1.1">
<g id="surface1">
<path style=" stroke:none;fill-rule:nonzero;fill:rgb(0%,100%,0%);fill-opacity:1;" d="M 4.859375 25 L 20.140625 25 C 22.824219 25 25 22.824219 25 20.140625 L 25 4.859375 C 25 2.175781 22.824219 0 20.140625 0 L 4.859375 0 C 2.175781 0 0 2.175781 0 4.859375 L 0 20.140625 C 0 22.824219 2.175781 25 4.859375 25 Z M 4.859375 25 "/>
<path style=" stroke:none;fill-rule:nonzero;fill:rgb(100%,100%,100%);fill-opacity:1;" d="M 20.453125 17.390625 L 17.25 15.269531 C 16.859375 15.035156 16.367188 15.03125 15.972656 15.261719 C 15.972656 15.261719 15.972656 15.261719 14.601562 16.058594 C 14.414062 16.167969 14.242188 16.183594 14.097656 16.160156 C 13.914062 16.128906 13.789062 16.027344 13.78125 16.019531 C 13.023438 15.46875 12.144531 14.734375 11.203125 13.792969 C 10.265625 12.855469 9.53125 11.976562 8.976562 11.21875 C 8.972656 11.210938 8.871094 11.085938 8.835938 10.902344 C 8.8125 10.757812 8.832031 10.582031 8.941406 10.398438 C 9.738281 9.023438 9.738281 9.023438 9.738281 9.023438 C 9.96875 8.628906 9.964844 8.140625 9.726562 7.75 L 7.609375 4.546875 C 7.347656 4.148438 6.808594 4.046875 6.417969 4.320312 C 6.417969 4.320312 5.417969 5.003906 5.082031 5.238281 C 4.554688 5.613281 4.382812 6.179688 4.382812 6.96875 C 4.378906 8.085938 5.339844 11.574219 9.382812 15.617188 C 13.425781 19.65625 16.914062 20.617188 18.03125 20.617188 C 18.820312 20.617188 19.386719 20.441406 19.761719 19.914062 C 19.996094 19.582031 20.679688 18.582031 20.679688 18.582031 C 20.953125 18.191406 20.851562 17.652344 20.453125 17.390625 Z M 20.453125 17.390625 "/>
</g>
</svg>
